<svg width="294" height="93" viewBox="0 0 294 93" fill="none" xmlns="http://www.w3.org/2000/svg">
<path d="M158.31 40.0302L151.012 20.1324L143.62 40.0302H158.31ZM158.476 7.08765L180.012 59.3372H165.393L161.923 50.0499H139.912L136.536 59.3372H122.227L143.691 7.08765H158.476Z" fill="black"/>
<path d="M207.728 60.257C189.972 60.257 179.204 49.8827 179.204 33.1752C179.204 16.6803 190.352 6.23511 208.108 6.23511C222.419 6.23511 232.474 14.7425 234.423 26.6291H221.229C219.733 19.4924 214.003 16.3967 207.633 16.3967C199.622 16.3967 193.418 22.5174 193.418 33.1752C193.418 44.2113 199.622 50.119 207.799 50.119C213.623 50.119 220.065 47.8031 221.634 39.8866H234.826C232.806 51.9861 222.109 60.257 207.728 60.257Z" fill="black"/>
<path d="M255.032 7.08765V40.9518L279.229 7.08765H292.207V59.3372H279.229V25.473L255.032 59.3372H242.077V7.08765H255.032Z" fill="black"/>
<path d="M23.6752 16.4713L0 0V66.4286L23.6752 49.9573V16.4713Z" fill="#3366CC"/>
<path d="M71.7625 16.4713V49.9573L95.4377 66.4286V0L71.7625 16.4713Z" fill="#3366CC"/>
<path d="M131.064 87.3061H128.174V76.1482H124.473V73.7572H134.764V76.1482H131.064V87.3061ZM174.798 87.3061V73.7357H183.695V76.1271H177.872V79.2967H182.53V81.5363H177.872V84.9147H184V87.3061H174.798ZM223.264 87.3061L227.751 73.7357H231.779L236.208 87.3061H232.982L232.046 84.2884H227.102L226.166 87.3061H223.264ZM229.583 76.241L227.77 82.1057H231.378L229.583 76.241ZM276.257 87.3061V73.7357H280.342L283.531 82.1816L286.681 73.7357H290.69V87.3061H287.616V77.7784L283.836 87.3061H282.824L279.025 77.7784V87.3061H276.257Z" fill="black"/>
</svg>
