<svg width="100" height="100" viewBox="0 0 100 100" fill="none" xmlns="http://www.w3.org/2000/svg">
<path fill-rule="evenodd" clip-rule="evenodd" d="M50 100C77.6143 100 100 77.6143 100 50C100 22.3857 77.6143 0 50 0C22.3857 0 0 22.3857 0 50C0 77.6143 22.3857 100 50 100ZM30 71V27H71V71H52.2084V64.2308H48.7916V71H30ZM67.5834 30.3846H33.4166V67.6154H45.375V60.8461H55.625V67.6154H67.5834V30.3846ZM36.8334 37.1539V33.7692H43.6666V37.1539H36.8334ZM47.0834 37.1539V33.7692H53.9166V37.1539H47.0834ZM57.3334 37.1539V33.7692H64.1666V37.1539H57.3334ZM36.8334 43.9231V40.5385H43.6666V43.9231H36.8334ZM47.0834 43.9231V40.5385H53.9166V43.9231H47.0834ZM57.3334 43.9231V40.5385H64.1666V43.9231H57.3334ZM36.8334 50.6923V47.3077H43.6666V50.6923H36.8334ZM47.0834 50.6923V47.3077H53.9166V50.6923H47.0834ZM57.3334 50.6923V47.3077H64.1666V50.6923H57.3334ZM36.8334 57.4615V54.0769H43.6666V57.4615H36.8334ZM47.0834 57.4615V54.0769H53.9166V57.4615H47.0834ZM57.3334 57.4615V54.0769H64.1666V57.4615H57.3334ZM36.8334 64.2308V60.8461H43.6666V64.2308H36.8334ZM57.3334 64.2308V60.8461H64.1666V64.2308H57.3334Z" fill="#3366CC"/>
</svg>
