<svg width="254" height="47" viewBox="0 0 254 47" fill="none" xmlns="http://www.w3.org/2000/svg">
<path d="M11.9375 10.9688C11.9375 13.2969 11.4414 15.0898 10.4492 16.3477C9.45703 17.6055 8.04688 18.2344 6.21875 18.2344C4.46094 18.2344 3.07031 17.625 2.04688 16.4062C1.03125 15.1797 0.503906 13.4492 0.464844 11.2148V8.00391C0.464844 5.72266 0.96875 3.9375 1.97656 2.64844C2.98438 1.35156 4.39062 0.703125 6.19531 0.703125C7.99219 0.703125 9.39062 1.32422 10.3906 2.56641C11.3984 3.80078 11.9141 5.56641 11.9375 7.86328V10.9688ZM9.79297 7.98047C9.79297 6.17578 9.49609 4.83594 8.90234 3.96094C8.31641 3.07813 7.41406 2.63672 6.19531 2.63672C5.01562 2.63672 4.12109 3.08203 3.51172 3.97266C2.91016 4.86328 2.60547 6.17578 2.59766 7.91016V10.9688C2.59766 12.7109 2.89844 14.0391 3.5 14.9531C4.10938 15.8672 5.01562 16.3242 6.21875 16.3242C7.42188 16.3242 8.3125 15.9023 8.89062 15.0586C9.46875 14.2148 9.76953 12.9219 9.79297 11.1797V7.98047ZM24.0547 2.78906H17.3398V7.89844H20.7852C22.3164 7.90625 23.5156 8.35547 24.3828 9.24609C25.25 10.1289 25.6836 11.3477 25.6836 12.9023C25.6836 14.4648 25.2422 15.707 24.3594 16.6289C23.4844 17.543 22.2695 18 20.7148 18H15.1836V0.9375H24.0547V2.78906ZM17.3398 9.75V16.1602H20.7617C21.6367 16.1602 22.3164 15.8594 22.8008 15.2578C23.2852 14.6562 23.5273 13.8633 23.5273 12.8789C23.5273 11.9102 23.2852 11.1484 22.8008 10.5938C22.3242 10.0312 21.6484 9.75 20.7734 9.75H17.3398ZM30.7109 0.9375V16.1602H35.3398V0.9375H37.4727V16.1602H42.0664V0.9375H44.2227V16.2305H45.6992L45.4883 22.1133H43.6602V18H28.5547V0.9375H30.7109ZM56.832 10.1133H50.7969V16.1602H57.8281V18H48.6523V0.9375H57.7109V2.78906H50.7969V8.27344H56.832V10.1133ZM71.2812 12.5859C71.1875 14.4141 70.6719 15.8125 69.7344 16.7812C68.8047 17.75 67.4883 18.2344 65.7852 18.2344C64.0742 18.2344 62.7148 17.5859 61.707 16.2891C60.6992 14.9844 60.1953 13.2188 60.1953 10.9922V7.89844C60.1953 5.67969 60.7109 3.92578 61.7422 2.63672C62.7812 1.34766 64.1953 0.703125 65.9844 0.703125C67.6328 0.703125 68.9062 1.19922 69.8047 2.19141C70.7109 3.17578 71.2031 4.58594 71.2812 6.42188H69.1133C69.0195 5.03125 68.7266 4.03906 68.2344 3.44531C67.7422 2.85156 66.9922 2.55469 65.9844 2.55469C64.8203 2.55469 63.9258 3.01172 63.3008 3.92578C62.6758 4.83203 62.3633 6.16406 62.3633 7.92188V11.0508C62.3633 12.7773 62.6523 14.1016 63.2305 15.0234C63.8164 15.9453 64.668 16.4062 65.7852 16.4062C66.9023 16.4062 67.707 16.1289 68.1992 15.5742C68.6914 15.0195 68.9961 14.0234 69.1133 12.5859H71.2812ZM83.8203 2.78906H79.332V18H77.1875V2.78906H72.7109V0.9375H83.8203V2.78906ZM86.3398 18V0.9375H91.2031C92.7578 0.9375 93.9258 1.31641 94.707 2.07422C95.4961 2.83203 95.8906 3.96875 95.8906 5.48438C95.8906 6.28125 95.6914 6.98438 95.293 7.59375C94.8945 8.20312 94.3555 8.67578 93.6758 9.01172C94.457 9.24609 95.0742 9.72656 95.5273 10.4531C95.9883 11.1797 96.2188 12.0547 96.2188 13.0781C96.2188 14.6094 95.7969 15.8125 94.9531 16.6875C94.1172 17.5625 92.9219 18 91.3672 18H86.3398ZM88.4844 10.0195V16.1602H91.4141C92.2266 16.1602 92.8711 15.8945 93.3477 15.3633C93.8242 14.8242 94.0625 14.0703 94.0625 13.1016C94.0625 11.0469 93.1953 10.0195 91.4609 10.0195H88.4844ZM88.4844 8.21484H91.2383C91.9805 8.21484 92.5781 7.96484 93.0312 7.46484C93.4922 6.96484 93.7227 6.30078 93.7227 5.47266C93.7227 4.53516 93.5156 3.85547 93.1016 3.43359C92.6875 3.00391 92.0547 2.78906 91.2031 2.78906H88.4844V8.21484ZM107.621 10.1133H101.586V16.1602H108.617V18H99.4414V0.9375H108.5V2.78906H101.586V8.27344H107.621V10.1133ZM122.539 18H120.383V10.1133H113.516V18H111.371V0.9375H113.516V8.27344H120.383V0.9375H122.539V18ZM137.422 18H135.266V10.1133H128.398V18H126.254V0.9375H128.398V8.27344H135.266V0.9375H137.422V18ZM149.305 13.5469H143.539L142.215 18H140.012L145.508 0.9375H147.348L152.855 18H150.652L149.305 13.5469ZM144.102 11.6953H148.754L146.422 3.9375L144.102 11.6953ZM162.617 18V11.3555H159.664L156.723 18H154.438L157.777 10.6992C155.918 9.83203 154.988 8.29297 154.988 6.08203C154.988 4.48047 155.434 3.22656 156.324 2.32031C157.223 1.40625 158.477 0.945313 160.086 0.9375H164.773V18H162.617ZM157.145 6.08203C157.145 7.11328 157.402 7.94141 157.918 8.56641C158.434 9.18359 159.156 9.5 160.086 9.51562H162.617V2.78906H160.109C159.141 2.78906 158.402 3.08203 157.895 3.66797C157.395 4.25391 157.145 5.05859 157.145 6.08203ZM185.27 18H183.113V2.78906H176.434V18H174.289V0.9375H185.27V18ZM197.047 13.5469H191.281L189.957 18H187.754L193.25 0.9375H195.09L200.598 18H198.395L197.047 13.5469ZM191.844 11.6953H196.496L194.164 3.9375L191.844 11.6953ZM214.098 0.9375V18H211.941V2.78906H207.172L206.914 9.96094C206.82 12.0547 206.621 13.6523 206.316 14.7539C206.012 15.8555 205.566 16.668 204.98 17.1914C204.395 17.7148 203.625 17.9844 202.672 18H202.016V16.1602L202.414 16.1367C202.984 16.0898 203.43 15.8711 203.75 15.4805C204.07 15.082 204.312 14.4531 204.477 13.5938C204.641 12.7344 204.758 11.4219 204.828 9.65625L205.109 0.9375H214.098ZM226.086 13.5469H220.32L218.996 18H216.793L222.289 0.9375H224.129L229.637 18H227.434L226.086 13.5469ZM220.883 11.6953H225.535L223.203 3.9375L220.883 11.6953ZM240.406 2.78906H235.918V18H233.773V2.78906H229.297V0.9375H240.406V2.78906ZM249.945 13.5469H244.18L242.855 18H240.652L246.148 0.9375H247.988L253.496 18H251.293L249.945 13.5469ZM244.742 11.6953H249.395L247.062 3.9375L244.742 11.6953ZM2.98438 39.3203V46H0.839844V28.9375H6.27734C7.86328 28.9375 9.10938 29.4141 10.0156 30.3672C10.9219 31.3125 11.375 32.5742 11.375 34.1523C11.375 35.793 10.9414 37.0586 10.0742 37.9492C9.21484 38.832 8 39.2891 6.42969 39.3203H2.98438ZM2.98438 37.4805H6.27734C7.23047 37.4805 7.96094 37.1953 8.46875 36.625C8.97656 36.0547 9.23047 35.2383 9.23047 34.1758C9.23047 33.1523 8.96875 32.332 8.44531 31.7148C7.92188 31.0977 7.20312 30.7891 6.28906 30.7891H2.98438V37.4805ZM25.25 38.9688C25.25 41.2969 24.7539 43.0898 23.7617 44.3477C22.7695 45.6055 21.3594 46.2344 19.5312 46.2344C17.7734 46.2344 16.3828 45.625 15.3594 44.4062C14.3438 43.1797 13.8164 41.4492 13.7773 39.2148V36.0039C13.7773 33.7227 14.2812 31.9375 15.2891 30.6484C16.2969 29.3516 17.7031 28.7031 19.5078 28.7031C21.3047 28.7031 22.7031 29.3242 23.7031 30.5664C24.7109 31.8008 25.2266 33.5664 25.25 35.8633V38.9688ZM23.1055 35.9805C23.1055 34.1758 22.8086 32.8359 22.2148 31.9609C21.6289 31.0781 20.7266 30.6367 19.5078 30.6367C18.3281 30.6367 17.4336 31.082 16.8242 31.9727C16.2227 32.8633 15.918 34.1758 15.9102 35.9102V38.9688C15.9102 40.7109 16.2109 42.0391 16.8125 42.9531C17.4219 43.8672 18.3281 44.3242 19.5312 44.3242C20.7344 44.3242 21.625 43.9023 22.2031 43.0586C22.7812 42.2148 23.082 40.9219 23.1055 39.1797V35.9805ZM39.2656 40.5859C39.1719 42.4141 38.6562 43.8125 37.7188 44.7812C36.7891 45.75 35.4727 46.2344 33.7695 46.2344C32.0586 46.2344 30.6992 45.5859 29.6914 44.2891C28.6836 42.9844 28.1797 41.2188 28.1797 38.9922V35.8984C28.1797 33.6797 28.6953 31.9258 29.7266 30.6367C30.7656 29.3477 32.1797 28.7031 33.9688 28.7031C35.6172 28.7031 36.8906 29.1992 37.7891 30.1914C38.6953 31.1758 39.1875 32.5859 39.2656 34.4219H37.0977C37.0039 33.0312 36.7109 32.0391 36.2188 31.4453C35.7266 30.8516 34.9766 30.5547 33.9688 30.5547C32.8047 30.5547 31.9102 31.0117 31.2852 31.9258C30.6602 32.832 30.3477 34.1641 30.3477 35.9219V39.0508C30.3477 40.7773 30.6367 42.1016 31.2148 43.0234C31.8008 43.9453 32.6523 44.4062 33.7695 44.4062C34.8867 44.4062 35.6914 44.1289 36.1836 43.5742C36.6758 43.0195 36.9805 42.0234 37.0977 40.5859H39.2656ZM51.8047 30.7891H47.3164V46H45.1719V30.7891H40.6953V28.9375H51.8047V30.7891ZM65.0938 38.9688C65.0938 41.2969 64.5977 43.0898 63.6055 44.3477C62.6133 45.6055 61.2031 46.2344 59.375 46.2344C57.6172 46.2344 56.2266 45.625 55.2031 44.4062C54.1875 43.1797 53.6602 41.4492 53.6211 39.2148V36.0039C53.6211 33.7227 54.125 31.9375 55.1328 30.6484C56.1406 29.3516 57.5469 28.7031 59.3516 28.7031C61.1484 28.7031 62.5469 29.3242 63.5469 30.5664C64.5547 31.8008 65.0703 33.5664 65.0938 35.8633V38.9688ZM62.9492 35.9805C62.9492 34.1758 62.6523 32.8359 62.0586 31.9609C61.4727 31.0781 60.5703 30.6367 59.3516 30.6367C58.1719 30.6367 57.2773 31.082 56.668 31.9727C56.0664 32.8633 55.7617 34.1758 55.7539 35.9102V38.9688C55.7539 40.7109 56.0547 42.0391 56.6562 42.9531C57.2656 43.8672 58.1719 44.3242 59.375 44.3242C60.5781 44.3242 61.4688 43.9023 62.0469 43.0586C62.625 42.2148 62.9258 40.9219 62.9492 39.1797V35.9805ZM68.4102 46V28.9375H73.2734C74.8281 28.9375 75.9961 29.3164 76.7773 30.0742C77.5664 30.832 77.9609 31.9688 77.9609 33.4844C77.9609 34.2812 77.7617 34.9844 77.3633 35.5938C76.9648 36.2031 76.4258 36.6758 75.7461 37.0117C76.5273 37.2461 77.1445 37.7266 77.5977 38.4531C78.0586 39.1797 78.2891 40.0547 78.2891 41.0781C78.2891 42.6094 77.8672 43.8125 77.0234 44.6875C76.1875 45.5625 74.9922 46 73.4375 46H68.4102ZM70.5547 38.0195V44.1602H73.4844C74.2969 44.1602 74.9414 43.8945 75.418 43.3633C75.8945 42.8242 76.1328 42.0703 76.1328 41.1016C76.1328 39.0469 75.2656 38.0195 73.5312 38.0195H70.5547ZM70.5547 36.2148H73.3086C74.0508 36.2148 74.6484 35.9648 75.1016 35.4648C75.5625 34.9648 75.793 34.3008 75.793 33.4727C75.793 32.5352 75.5859 31.8555 75.1719 31.4336C74.7578 31.0039 74.125 30.7891 73.2734 30.7891H70.5547V36.2148ZM92.2109 40.5859C92.1172 42.4141 91.6016 43.8125 90.6641 44.7812C89.7344 45.75 88.418 46.2344 86.7148 46.2344C85.0039 46.2344 83.6445 45.5859 82.6367 44.2891C81.6289 42.9844 81.125 41.2188 81.125 38.9922V35.8984C81.125 33.6797 81.6406 31.9258 82.6719 30.6367C83.7109 29.3477 85.125 28.7031 86.9141 28.7031C88.5625 28.7031 89.8359 29.1992 90.7344 30.1914C91.6406 31.1758 92.1328 32.5859 92.2109 34.4219H90.043C89.9492 33.0312 89.6562 32.0391 89.1641 31.4453C88.6719 30.8516 87.9219 30.5547 86.9141 30.5547C85.75 30.5547 84.8555 31.0117 84.2305 31.9258C83.6055 32.832 83.293 34.1641 83.293 35.9219V39.0508C83.293 40.7773 83.582 42.1016 84.1602 43.0234C84.7461 43.9453 85.5977 44.4062 86.7148 44.4062C87.832 44.4062 88.6367 44.1289 89.1289 43.5742C89.6211 43.0195 89.9258 42.0234 90.043 40.5859H92.2109ZM98.9961 38.3359H97.3789V46H95.2344V28.9375H97.3789V36.4609H98.6914L103.496 28.9375H106.168L100.754 37.1875L106.566 46H103.941L98.9961 38.3359ZM119.305 38.9688C119.305 41.2969 118.809 43.0898 117.816 44.3477C116.824 45.6055 115.414 46.2344 113.586 46.2344C111.828 46.2344 110.438 45.625 109.414 44.4062C108.398 43.1797 107.871 41.4492 107.832 39.2148V36.0039C107.832 33.7227 108.336 31.9375 109.344 30.6484C110.352 29.3516 111.758 28.7031 113.562 28.7031C115.359 28.7031 116.758 29.3242 117.758 30.5664C118.766 31.8008 119.281 33.5664 119.305 35.8633V38.9688ZM117.16 35.9805C117.16 34.1758 116.863 32.8359 116.27 31.9609C115.684 31.0781 114.781 30.6367 113.562 30.6367C112.383 30.6367 111.488 31.082 110.879 31.9727C110.277 32.8633 109.973 34.1758 109.965 35.9102V38.9688C109.965 40.7109 110.266 42.0391 110.867 42.9531C111.477 43.8672 112.383 44.3242 113.586 44.3242C114.789 44.3242 115.68 43.9023 116.258 43.0586C116.836 42.2148 117.137 40.9219 117.16 39.1797V35.9805ZM131.516 28.9375H133.66V46H131.516V32.8516L124.871 46H122.715V28.9375H124.871V42.0859L131.516 28.9375ZM131.738 24.6953C131.738 25.6406 131.414 26.4023 130.766 26.9805C130.125 27.5508 129.281 27.8359 128.234 27.8359C127.188 27.8359 126.34 27.5469 125.691 26.9688C125.043 26.3906 124.719 25.6328 124.719 24.6953H126.488C126.488 25.2422 126.637 25.6719 126.934 25.9844C127.23 26.2891 127.664 26.4414 128.234 26.4414C128.781 26.4414 129.207 26.2891 129.512 25.9844C129.824 25.6797 129.98 25.25 129.98 24.6953H131.738ZM154.086 38.9688C154.086 41.2969 153.59 43.0898 152.598 44.3477C151.605 45.6055 150.195 46.2344 148.367 46.2344C146.609 46.2344 145.219 45.625 144.195 44.4062C143.18 43.1797 142.652 41.4492 142.613 39.2148V36.0039C142.613 33.7227 143.117 31.9375 144.125 30.6484C145.133 29.3516 146.539 28.7031 148.344 28.7031C150.141 28.7031 151.539 29.3242 152.539 30.5664C153.547 31.8008 154.062 33.5664 154.086 35.8633V38.9688ZM151.941 35.9805C151.941 34.1758 151.645 32.8359 151.051 31.9609C150.465 31.0781 149.562 30.6367 148.344 30.6367C147.164 30.6367 146.27 31.082 145.66 31.9727C145.059 32.8633 144.754 34.1758 144.746 35.9102V38.9688C144.746 40.7109 145.047 42.0391 145.648 42.9531C146.258 43.8672 147.164 44.3242 148.367 44.3242C149.57 44.3242 150.461 43.9023 151.039 43.0586C151.617 42.2148 151.918 40.9219 151.941 39.1797V35.9805ZM166.203 30.7891H159.488V35.8984H162.934C164.465 35.9062 165.664 36.3555 166.531 37.2461C167.398 38.1289 167.832 39.3477 167.832 40.9023C167.832 42.4648 167.391 43.707 166.508 44.6289C165.633 45.543 164.418 46 162.863 46H157.332V28.9375H166.203V30.7891ZM159.488 37.75V44.1602H162.91C163.785 44.1602 164.465 43.8594 164.949 43.2578C165.434 42.6562 165.676 41.8633 165.676 40.8789C165.676 39.9102 165.434 39.1484 164.949 38.5938C164.473 38.0312 163.797 37.75 162.922 37.75H159.488ZM181.566 28.9375V46H179.41V30.7891H174.641L174.383 37.9609C174.289 40.0547 174.09 41.6523 173.785 42.7539C173.48 43.8555 173.035 44.668 172.449 45.1914C171.863 45.7148 171.094 45.9844 170.141 46H169.484V44.1602L169.883 44.1367C170.453 44.0898 170.898 43.8711 171.219 43.4805C171.539 43.082 171.781 42.4531 171.945 41.5938C172.109 40.7344 172.227 39.4219 172.297 37.6562L172.578 28.9375H181.566ZM193.555 41.5469H187.789L186.465 46H184.262L189.758 28.9375H191.598L197.105 46H194.902L193.555 41.5469ZM188.352 39.6953H193.004L190.672 31.9375L188.352 39.6953ZM209.984 40.5859C209.891 42.4141 209.375 43.8125 208.438 44.7812C207.508 45.75 206.191 46.2344 204.488 46.2344C202.777 46.2344 201.418 45.5859 200.41 44.2891C199.402 42.9844 198.898 41.2188 198.898 38.9922V35.8984C198.898 33.6797 199.414 31.9258 200.445 30.6367C201.484 29.3477 202.898 28.7031 204.688 28.7031C206.336 28.7031 207.609 29.1992 208.508 30.1914C209.414 31.1758 209.906 32.5859 209.984 34.4219H207.816C207.723 33.0312 207.43 32.0391 206.938 31.4453C206.445 30.8516 205.695 30.5547 204.688 30.5547C203.523 30.5547 202.629 31.0117 202.004 31.9258C201.379 32.832 201.066 34.1641 201.066 35.9219V39.0508C201.066 40.7773 201.355 42.1016 201.934 43.0234C202.52 43.9453 203.371 44.4062 204.488 44.4062C205.605 44.4062 206.41 44.1289 206.902 43.5742C207.395 43.0195 207.699 42.0234 207.816 40.5859H209.984ZM222.523 30.7891H218.035V46H215.891V30.7891H211.414V28.9375H222.523V30.7891ZM233.938 28.9375H236.082V46H233.938V32.8516L227.293 46H225.137V28.9375H227.293V42.0859L233.938 28.9375Z" fill="black"/>
</svg>
