<svg width="1366" height="181" xmlns="http://www.w3.org/2000/svg">
 <style type="text/css">.st0{fill:#0640B5;}
	.st1{fill:#3366CC;}
	.st2{fill:#FFFFFF;}</style>

 <g>
  <title>background</title>
  <rect fill="none" id="canvas_background" height="183" width="1368" y="-1" x="-1"/>
 </g>
 <g>
  <title>Layer 1</title>
  <path id="svg_1" d="m1349.4,147.3c-1.2,6.3 -10.9,3.6 -9.6,-2.7c2.9,-14.7 6.2,-29.3 9.6,-43.8c-23.9,-6.2 -49.3,-12.3 -76.4,-18.4c-369.9,-83.2 -785.9,3.5 -947.7,57.2l-32.6,177.4l796.4,29.9l213.7,-17.7c-0.4,-1.7 0,-3.6 1.2,-4.9c0,-0.1 0,-0.1 -0.1,-0.2c-0.1,-0.4 -0.2,-0.8 -0.2,-1.2c-0.4,-2.3 0.4,-4.4 2.2,-5.5c-0.2,-0.5 -0.3,-1.1 -0.4,-1.6c-0.4,-2.1 0,-4.2 0.9,-6.1c-0.5,-0.2 -0.9,-0.5 -1.2,-0.9c-0.5,-0.5 -0.8,-1 -1,-1.6c-0.3,-0.6 -0.5,-1.2 -0.4,-1.9c0,-0.2 0,-0.4 0,-0.6c0,-0.9 0.2,-1.7 0.7,-2.5c0.3,-0.3 0.5,-0.7 0.8,-1c0.6,-0.6 1.4,-1 2.2,-1.3c0.4,-0.1 0.9,-0.1 1.3,-0.2c0.7,0 1.3,0.1 1.9,0.4c0.4,0.1 0.7,0.3 1,0.5c1.5,-3 3.6,-5.8 5.4,-7.7c1.6,-1.7 3.2,-3.3 4.9,-4.9c2.8,-4.2 5.5,-8.5 8.3,-12.7c0.7,-1.1 1.5,-2.2 2.2,-3.2c1.2,-9.7 2.7,-19.4 4.5,-29.1c7.7,-41.1 20.5,-81 29,-122c1,-5.1 2.1,-10.1 3.1,-15.2c-3.3,-0.9 -6.6,-1.8 -10,-2.7c-3.5,14.9 -6.8,29.5 -9.7,44.2z" class="st0"/>
  <g fill="white" stroke="null" id="svg_2">
   <path stroke="null" id="svg_3" d="m1369,329.7c-104.3,16 -269.7,42.6 -295.6,47.8c-30,6 -420.8,-13.5 -612.5,-24l-478.5,-36c-117.7,-80.7 -289.2,-254 -34,-302c319,-60 336,82.5 785,137c268.8,32.6 496.8,-61.7 635.6,-151.9" class="st1"/>
   <path stroke="null" id="svg_4" d="m1369,0.6c0,0 0,0 0,0" class="st1"/>
  </g>
  <path id="svg_5" d="m3,316" class="st0"/>
  <path id="svg_7" d="m1367,83.6" class="st1"/>
 </g>
</svg>